<?xml version="1.0" encoding="UTF-8"?>
<svg width="1024" height="1024" viewBox="0 0 1024 1024" xmlns="http://www.w3.org/2000/svg">
  <g fill="#F5EEDC">
    <path d="M512 214c-21.54 0-39 17.46-39 39v172h-154c-21.54 0-39 17.46-39 39s17.46 39 39 39h154v172c0 21.54 17.46 39 39 39s39-17.46 39-39V503h154c21.54 0 39-17.46 39-39s-17.46-39-39-39H551V253c0-21.54-17.46-39-39-39z"/>
    <path d="M255.5 604c-21.3 0-39.5 17.46-39.5 39v166c0 18.1 12.6 33.9 30.2 38.1 12.8 3.1 25.9 1.9 38.4-3.6 103-44.1 176.5-44.1 279.5 0 12.5 5.5 25.6 6.7 38.4 3.6 17.6-4.2 30.2-20 30.2-38.1V643c0-21.54-17.46-39-39-39-5.5 0-10.7 1.1-15.5 3.2-97.9 41.9-189.1 41.9-287 0-4.8-2.1-10-3.2-15.5-3.2h-20.2z" fill="#F9F4E4"/>
    <path d="M788.5 604h-20.2c-5.5 0-10.7 1.1-15.5 3.2-34.6 14.8-67.8 24.6-100.1 29.5v139.5c34.5-7.5 69.7-4 107.9 12.6 12.5 5.5 25.6 6.7 38.4 3.6 17.6-4.2 30.2-20 30.2-38.1V643c0-21.54-17.46-39-39-39z" fill="#EBDCBF"/>
  </g>
</svg>
